name symmetric_stride_kinematics_HTD_Plus_4.mot
datacolumns 38
datarows 7
range 1.04510982 1.05198643
endheader
                time	/jointset/ground_pelvis/pelvis_tilt/value	/jointset/ground_pelvis/pelvis_list/value	/jointset/ground_pelvis/pelvis_rotation/value	/jointset/ground_pelvis/pelvis_tx/value	/jointset/ground_pelvis/pelvis_ty/value	/jointset/ground_pelvis/pelvis_tz/value	/jointset/hip_r/hip_flexion_r/value	/jointset/hip_r/hip_adduction_r/value	/jointset/hip_r/hip_rotation_r/value	/jointset/knee_r/knee_angle_r/value	/jointset/ankle_r/ankle_angle_r/value	/jointset/subtalar_r/subtalar_angle_r/value	/jointset/mtp_r/mtp_angle_r/value	/jointset/hip_l/hip_flexion_l/value	/jointset/hip_l/hip_adduction_l/value	/jointset/hip_l/hip_rotation_l/value	/jointset/knee_l/knee_angle_l/value	/jointset/ankle_l/ankle_angle_l/value	/jointset/subtalar_l/subtalar_angle_l/value	/jointset/mtp_l/mtp_angle_l/value	/jointset/back/lumbar_extension/value	/jointset/back/lumbar_bending/value	/jointset/back/lumbar_rotation/value	/jointset/acromial_r/arm_flex_r/value	/jointset/acromial_r/arm_add_r/value	/jointset/acromial_r/arm_rot_r/value	/jointset/elbow_r/elbow_flex_r/value	/jointset/radioulnar_r/pro_sup_r/value	/jointset/radius_hand_r/wrist_flex_r/value	/jointset/radius_hand_r/wrist_dev_r/value	/jointset/acromial_l/arm_flex_l/value	/jointset/acromial_l/arm_add_l/value	/jointset/acromial_l/arm_rot_l/value	/jointset/elbow_l/elbow_flex_l/value	/jointset/radioulnar_l/pro_sup_l/value	/jointset/radius_hand_l/wrist_flex_l/value	/jointset/radius_hand_l/wrist_dev_l/value	
          1.04510982	         -5.46175325	          6.53056628	          0.67153957	         12.35000012	          0.99577020	          0.30262331	         16.16375860	        -12.57495468	          2.09612037	       -118.53295333	         -9.23329898	        -18.48116054	         -3.54915319	         35.91421295	          4.90639605	         -1.75203680	        -19.52539130	        -26.66866878	        -17.26365494	         -7.52466224	        -19.43255115	        -10.32288445	          5.32129605	         -0.45028255	        -24.64511212	        -14.99409560	         73.51448860	         71.64425849	        -18.37224137	          5.08786913	        -15.19181543	        -26.24000117	        -14.95418713	         92.85011542	         80.50933691	        -23.37888511	          5.13745639	
          1.04575800	         -5.56761825	          6.50633819	          0.96698103	         12.35770096	          0.99541703	          0.30284064	         16.59816727	        -12.58609513	          1.93298135	       -118.93571621	         -9.02805473	        -18.55101089	         -3.42984895	         35.60559621	          5.02083821	         -1.81673655	        -19.27637333	        -26.09520021	        -16.95412758	         -7.14111763	        -19.31788175	        -10.26250831	          5.12990368	         -0.94417255	        -24.48609246	        -14.98697214	         73.16536472	         71.41236162	        -18.48525397	          5.08785614	        -14.23779985	        -26.23413655	        -14.96510974	         92.93960176	         80.68406740	        -23.29026749	          5.12514908	
          1.04780599	         -5.91144531	          6.41411131	          1.92516568	         12.38203565	          0.99421118	          0.30353272	         17.98980420	        -12.62992423	          1.40112652	       -120.19561760	         -8.38745156	        -18.76605014	         -3.24044218	         34.63633562	          5.37014735	         -1.97559899	        -18.53415969	        -24.18401503	        -15.95063700	         -5.89932142	        -18.93864729	        -10.06016448	          4.49253540	         -2.48483522	        -23.95569891	        -14.95207298	         72.13316925	         70.69448684	        -18.84454436	          5.11675574	        -11.20759418	        -26.19854336	        -14.99265125	         93.18127007	         81.35422811	        -23.01450447	          5.11130479	
          1.04929026	         -6.16857555	          6.33187539	          2.64168628	         12.39967571	          0.99325191	          0.30403811	         19.01601174	        -12.67064751	          1.00141882	       -121.09618965	         -7.93187949	        -18.91876617	         -3.28069903	         33.93887395	          5.61035725	         -2.03500662	        -18.04140731	        -22.73881397	        -15.22184793	         -4.95934296	        -18.64828373	         -9.90327597	          4.00082288	         -3.58833497	        -23.54702734	        -14.91901734	         71.45399380	         70.21335730	        -19.10449252	          5.13982046	         -9.00151204	        -26.16061433	        -14.99998308	         93.32399676	         81.88913321	        -22.82074598	          5.10544707	
          1.04929026	         -6.16857555	          6.33187539	          2.64168628	         12.39967571	          0.99325191	          0.30403811	         19.01601174	        -12.67064751	          1.00141882	       -121.09618965	         -7.93187949	        -18.91876617	         -3.28069903	         33.93887395	          5.61035725	         -2.03500662	        -18.04140731	        -22.73881397	        -15.22184793	         -4.95934296	        -18.64828373	         -9.90327597	          4.00082288	         -3.58833497	        -23.54702734	        -14.91901734	         71.45399380	         70.21335730	        -19.10449252	          5.13982046	         -9.00151204	        -26.16061433	        -14.99998308	         93.32399676	         81.88913321	        -22.82074598	          5.10544707	
          1.04993844	         -6.28265293	          6.29180307	          2.95997700	         12.40738032	          0.99281064	          0.30425936	         19.46862230	        -12.69097569	          0.82351856	       -121.48601625	         -7.73568191	        -18.98526378	         -3.34061891	         33.63538799	          5.71144799	         -2.04344200	        -17.83894002	        -22.09964594	        -14.90872643	         -4.53972351	        -18.51759721	         -9.83229457	          3.77848799	         -4.06794477	        -23.36289844	        -14.90310878	         71.17587651	         70.01417095	        -19.21795759	          5.14757820	         -8.03703254	        -26.14131708	        -14.99999935	         93.37963273	         82.12720196	        -22.73792188	          5.09986972	
          1.05198643	         -6.65007198	          6.14784633	          3.98509148	         12.43172940	          0.99132603	          0.30495851	         20.91710323	        -12.76573189	          0.25036784	       -122.70362543	         -7.12293561	        -19.19266844	         -3.75036890	         32.68092789	          6.01408111	         -1.98486995	        -17.25270544	        -20.06178306	        -13.96638956	         -3.21389680	        -18.08847831	         -9.59908020	          3.04852528	         -5.57898988	        -22.75659638	        -14.86493925	         70.37058850	         69.44342964	        -19.57725552	          5.17771503	         -4.98846435	        -26.07845378	        -14.96883265	         93.53755987	         82.87958081	        -22.48460217	          5.08978736	
